<svg xmlns="http://www.w3.org/2000/svg" width="1000" height="1000" viewBox="0 0 1000 1000">
  <defs>
    <style>
      .cls-1 {
        fill-rule: evenodd;
      }
    </style>
  </defs>
  <path id="Rock" class="cls-1" d="M251.738,198.578a55.917,55.917,0,0,0,11.535-34.729q0-21.484-14.16-33.326a35.434,35.434,0,0,0-14.221-7.568q-7.387-1.832-23.254-1.831H171.11q-10.743,0-16.6,4.578t-5.86,13q0,11.6,16.846,11.6h12.573L135.832,254.425q-13.063,32.106-23.987,44.678T86.027,311.676q-12.085,0-19.1-8T59.9,281.891a47.812,47.812,0,0,1,7.2-25.025A57.171,57.171,0,0,1,86.76,237.335q14.769-8.91,39.184-11.108,10.5-1.1,14.16-3.663a14.114,14.114,0,0,0,6.348-12.085,13.385,13.385,0,0,0-5.92-11.291q-5.922-4.332-15.442-4.334a104.56,104.56,0,0,0-40.405,8.484Q64.3,211.825,50.749,225.616,25.6,251.5,25.6,285.553q0,26.121,15.991,42.236T83.342,343.9q35.4,0,58.716-31.494a116.387,116.387,0,0,0,11.413-18.86q4.944-10.191,16.663-39.123l16.357-40.283L221.77,299.1Q230.8,321.075,254,321.075h56.275q10.863,0,16.723-4.638t5.86-13.062q0-11.475-16.846-11.475H264.982l-4.882.122q-8.057,0-13.062-11.84l-25.757-61.158A55.907,55.907,0,0,0,251.738,198.578ZM212.492,150.3h2.686q16.113,0,16.113,16.846,0,14.647-13.184,23.315-6.837,4.518-20.752,5.371l-3.54.244Zm75.987,59.326q-16.727,16.968-16.724,40.161,0,21.974,16.357,33.2,6.958,4.761,26.856,4.761,12.205,0,18.982-1.892a37.493,37.493,0,0,0,13.122-6.9,56.4,56.4,0,0,0,15.5-20.569,61.076,61.076,0,0,0,5.982-25.94q0-17.333-11.414-28.564t-29.114-11.231Q305.2,192.657,288.479,209.625ZM335.6,222.931q4.027,4.273,4.028,11.23a31.54,31.54,0,0,1-8.3,21.485q-5.007,5.739-14.282,5.737-15.87,0-15.869-14.16a29.952,29.952,0,0,1,7.446-19.654q7.445-8.908,16.48-8.911A13.772,13.772,0,0,1,335.6,222.931Zm126.95,60.608A13.69,13.69,0,0,0,468.1,272q0-10.863-15.5-10.864H429.528q-12.7,0-18-3.6t-5.31-12.268a29.922,29.922,0,0,1,6.531-18.8q6.528-8.424,14.465-8.423,8.423,0,8.423,8.545,0,1.221-.122,2.563v2.686q0,10.5,11.23,10.5a14.065,14.065,0,0,0,11.6-5.8q4.515-5.8,4.517-14.832,0-12.937-9.034-21t-23.437-8.057q-21.24,0-36.987,16.846a56.188,56.188,0,0,0-15.748,39.673q0,17.091,9.583,27.832t24.841,10.742h35.4Q456.994,287.75,462.548,283.539Zm105.223-60.73,2.807-2.076q9.033-6.711,9.033-14.892a10.908,10.908,0,0,0-3.418-8.179,11.823,11.823,0,0,0-8.545-3.3q-6.105,0-14.648,6.348L525.534,221.1l31.128-76.661,1.343-3.295a22.654,22.654,0,0,0,1.953-8.423,10.805,10.805,0,0,0-3.662-8.179,12.436,12.436,0,0,0-8.789-3.418q-12.332,0-17.945,13.672l-1.342,3.3L475.974,266.876l-1.343,3.3a21.52,21.52,0,0,0-1.953,8.179,10.186,10.186,0,0,0,3.6,7.873,12.765,12.765,0,0,0,8.85,3.235q12.694,0,19.287-16.235l13.672-33.814,28.32,42.359,1.465,2.2q3.783,5.493,8.911,5.493a14.879,14.879,0,0,0,10.559-4.517q4.7-4.514,4.7-10.131,0-3.54-3.54-9.034l-18.921-29.663Z"/>
  <path id="Paper" class="cls-1" d="M277.958,425.376q26.245,0,38.819-10.376,17.333-14.282,17.334-36.743,0-18.43-11.17-27.283t-34.607-8.85H241.826q-10.743,0-16.663,4.578t-5.92,12.878q0,11.719,16.845,11.719h13.306L207.036,475.425Q193.973,507.531,183.11,520.1t-25.757,12.573q-11.843,0-18.86-8t-7.019-21.545a48.543,48.543,0,0,1,7.2-25.33,55.965,55.965,0,0,1,19.654-19.47q15.013-8.91,39.184-11.108,10.374-.976,14.038-3.663A14.006,14.006,0,0,0,217.9,431.6a13.537,13.537,0,0,0-5.859-11.414q-5.861-4.332-15.5-4.334a104.563,104.563,0,0,0-40.406,8.484q-20.387,8.487-33.935,22.4Q97.048,472.5,97.05,506.919q0,25.755,15.869,41.87T154.3,564.9q24.171,0,42.481-14.4A84.669,84.669,0,0,0,217.6,526.572q8.239-14.038,23.376-51.147l20.264-50.049h16.723Zm5.25-54.077h8.178q11.107,0,11.109,9.033,0,15.87-19.532,15.869h-9.887ZM417.3,438.682l1.343-3.3a22.246,22.246,0,0,0,1.953-8.179,11.158,11.158,0,0,0-3.6-8.423,12.533,12.533,0,0,0-8.972-3.418q-9.888,0-15.991,9.155-7.2-10.863-22.827-10.864-20.388,0-36.56,18.494t-16.175,41.931q0,15.5,8.24,25.085t21.667,9.583h13.916q8.544,0,17.7-8.179,3.781,8.179,14.282,8.179H407.9q9.642,0,15.137-4.211a13.869,13.869,0,0,0,5.493-11.658q0-10.74-15.381-10.742H399.721Zm-72.021,31.494q0-11.107,8.423-21.485t17.334-10.376a12.506,12.506,0,0,1,7.751,2.442,7.086,7.086,0,0,1,3.235,5.737,19.059,19.059,0,0,1-1.709,6.958l-8.545,21.118q-3.3,8.18-13.306,8.179H355.41q-10.134,0-10.132-12.573h0Zm126.584,36.865q4.7,1.712,17.151,1.709,11.6,0,18.067-2.319a33.933,33.933,0,0,0,12.573-8.545q18.677-18.921,18.677-48.95,0-15.868-7.874-25.574a25.349,25.349,0,0,0-20.691-9.705,27.635,27.635,0,0,0-20.874,9.033q-4.518-7.323-12.207-7.324-11.109,0-15.625,10.987L402.221,571.372q-3.05,7.691-3.052,11.475a10.223,10.223,0,0,0,3.479,7.751,11.857,11.857,0,0,0,8.362,3.235q12.7,0,19.287-16.235l31.861-78.369Q467.162,505.334,471.862,507.041Zm8.362-52.368q0.366-1.1.977-2.686,5.37-14.281,17.7-14.282,11.229,0,11.23,11.841,0,13.8-9.887,26.855-4.884,6.473-13.55,6.47-5.982,0-8.728-1.587t-5.8-6.958Zm120.786,18.31q14.769,0,22.217-4.516,13.427-7.933,13.428-24.414,0-13.671-9.7-22.034t-25.7-8.362q-21.972,0-37.9,17.09A57.585,57.585,0,0,0,547.421,471.4q0,18.312,10.071,27.833t29.358,9.521H621.4q9.765,0,15.2-4.15t5.432-11.6q0-10.863-15.381-10.864H590.39q-13.8,0-13.794-9.156H601.01Zm-0.854-34.423q8.057,0,8.423,6.469,0.366,5.739-12.7,5.738H582.456q6.468-12.205,17.7-12.207h0Zm92.221,3.54q-10.5,11.718-14.648,19.775a35.825,35.825,0,0,0-4.15,16.6q0,13.43,7.751,21.85t19.959,8.423h23.925q9.765,0,15.2-4.15t5.432-11.719q0-10.74-15.5-10.742H714.96q-11.232,0-11.23-10.132t19.409-28.687l1.343-1.22q20.262,0,20.264-15.5,0-11.23-15.992-11.231H700.19q-5.739,0-7.2-.732t-2.2-3.662l-0.977-3.784q-2.077-8.544-11.108-8.545-9.156,0-14.161,12.329l-13.794,34.057q-2.686,6.715-2.685,9.522a10.558,10.558,0,0,0,3.662,8.178,13.171,13.171,0,0,0,9.155,3.3q9.033,0,14.649-13.671l4.15-10.254h12.695Z"/>
  <path id="Scissors" class="cls-1" d="M288.678,646.376q25.512,0,37.231-7.324,20.628-12.818,20.63-36.865,0-18.065-13-29.419t-33.631-11.353q-27.465,0-47.119,15.808T230.694,617.2H209.82q-10.743,0-16.662,4.578t-5.921,13q0,11.6,16.846,11.6h32.959q5,9.645,16.6,22.461,16.6,18.433,21.606,27.222a38.778,38.778,0,0,1,5,19.531q0,16.968-12.329,29.48t-29.053,12.512q-15.138,0-24.963-9.46t-9.827-23.987q0-9.156,5.615-18.555a42.6,42.6,0,0,1,14.038-14.648l9.766-5.982q9.522-5.859,9.521-13.916a12.617,12.617,0,0,0-4.15-9.765,15.331,15.331,0,0,0-10.742-3.785q-12.7,0-27.71,11.841Q172.1,691.664,172.1,725.111q0,27.344,18.188,44.861t46.631,17.517q36.741,0,59.448-26a64.757,64.757,0,0,0,16.6-44.067q0-25.878-18.8-49.072l-6.47-7.813-11.23-14.16h12.207Zm-15.32-47.852a38.809,38.809,0,0,1,23.987-8.178q8.422,0,13.488,3.418A10.446,10.446,0,0,1,315.9,602.8q0,14.4-24.78,14.4h-29.3Q262.555,606.7,273.358,598.524ZM423.807,725.539A13.692,13.692,0,0,0,429.361,714q0-10.863-15.5-10.864H390.787q-12.7,0-18-3.6t-5.31-12.268a29.927,29.927,0,0,1,6.53-18.8q6.53-8.424,14.466-8.423,8.423,0,8.423,8.545,0,1.221-.122,2.563v2.686q0,10.5,11.23,10.5a14.065,14.065,0,0,0,11.6-5.8q4.514-5.8,4.516-14.832,0-12.937-9.033-21t-23.437-8.057q-21.242,0-36.988,16.846a56.192,56.192,0,0,0-15.747,39.673q0,17.091,9.583,27.832t24.841,10.742h35.4Q418.253,729.75,423.807,725.539Zm63.963-65.613q3.3-8.057,3.3-11.963a10.726,10.726,0,0,0-3.723-8.179,12.652,12.652,0,0,0-8.85-3.418q-12.452,0-18.066,13.794l-1.343,3.418-20.142,49.561q-2.563,6.225-2.563,10.254a13.923,13.923,0,0,0,6.164,11.962q6.164,4.395,16.907,4.395h19.409q9.765,0,15.2-4.15t5.432-11.6q0-10.863-15.381-10.864H470.313ZM474.4,602.37a17.093,17.093,0,1,0,12.024-4.944A16.369,16.369,0,0,0,474.4,602.37Zm78.244,77.819q3.174,6.106,3.174,10.621,0,12.33-16.967,12.329H524.693q-9.643,0-15.136,4.211a13.872,13.872,0,0,0-5.494,11.658q0,10.743,15.5,10.742h25.513q17.09,0,28.565-10.315a33.141,33.141,0,0,0,11.474-25.7q0-13.793-10.62-28.564l-6.958-9.644q-5.739-8.056-5.737-15.747a26.933,26.933,0,0,1,.488-4.761,32.165,32.165,0,0,0,.732-4.76,9.676,9.676,0,0,0-3.418-7.386,11.727,11.727,0,0,0-8.178-3.112q-8.913,0-14.893,11.84L520.3,664.564q-3.542,7.082-3.54,11.353a10.4,10.4,0,0,0,3.967,8,13.241,13.241,0,0,0,8.972,3.479q9.888,0,15.259-12.085l2.319-5.616Zm89.781,0Q645.6,686.3,645.6,690.81q0,12.33-16.968,12.329h-14.16q-9.645,0-15.137,4.211a13.871,13.871,0,0,0-5.493,11.658q0,10.743,15.5,10.742h25.512q17.089,0,28.565-10.315a33.141,33.141,0,0,0,11.474-25.7q0-13.793-10.62-28.564l-6.958-9.644q-5.739-8.056-5.737-15.747a26.933,26.933,0,0,1,.488-4.761,32.076,32.076,0,0,0,.733-4.76,9.679,9.679,0,0,0-3.418-7.386,11.731,11.731,0,0,0-8.179-3.112q-8.912,0-14.893,11.84l-16.235,32.959q-3.542,7.082-3.54,11.353a10.4,10.4,0,0,0,3.967,8,13.244,13.244,0,0,0,8.973,3.479q9.887,0,15.258-12.085l2.32-5.616Zm60.727-28.564q-16.725,16.968-16.723,40.161,0,21.973,16.357,33.2,6.958,4.761,26.856,4.761,12.2,0,18.981-1.892a37.489,37.489,0,0,0,13.123-6.9,56.4,56.4,0,0,0,15.5-20.569,61.089,61.089,0,0,0,5.981-25.94q0-17.332-11.413-28.564t-29.114-11.231Q719.877,634.657,703.155,651.625Zm47.119,13.306q4.029,4.273,4.029,11.23a31.54,31.54,0,0,1-8.3,21.485q-5.007,5.739-14.282,5.737-15.87,0-15.869-14.16a29.952,29.952,0,0,1,7.446-19.654q7.444-8.909,16.479-8.911A13.769,13.769,0,0,1,750.274,664.931Zm85.142-1.831q-10.5,11.718-14.648,19.775a35.826,35.826,0,0,0-4.151,16.6q0,13.429,7.752,21.85t19.958,8.423h23.926q9.765,0,15.2-4.15t5.432-11.719q0-10.74-15.5-10.742H858q-11.232,0-11.23-10.132t19.409-28.687l1.343-1.22q20.261,0,20.263-15.5,0-11.23-15.991-11.231H843.229q-5.74,0-7.2-.732t-2.2-3.662l-0.976-3.784q-2.077-8.544-11.109-8.545-9.155,0-14.16,12.329L793.79,666.029q-2.686,6.716-2.686,9.522a10.555,10.555,0,0,0,3.663,8.178,13.171,13.171,0,0,0,9.155,3.3q9.031,0,14.648-13.671l4.151-10.254h12.7Zm107.358,17.089q3.174,6.106,3.174,10.621,0,12.33-16.968,12.329H914.82q-9.644,0-15.136,4.211a13.869,13.869,0,0,0-5.494,11.658q0,10.743,15.5,10.742h25.513q17.09,0,28.565-10.315a33.141,33.141,0,0,0,11.474-25.7q0-13.793-10.62-28.564l-6.958-9.644q-5.739-8.056-5.737-15.747a26.933,26.933,0,0,1,.488-4.761,32.165,32.165,0,0,0,.732-4.76,9.676,9.676,0,0,0-3.418-7.386,11.727,11.727,0,0,0-8.178-3.112q-8.913,0-14.893,11.84l-16.235,32.959q-3.543,7.082-3.54,11.353a10.4,10.4,0,0,0,3.967,8,13.241,13.241,0,0,0,8.972,3.479q9.888,0,15.259-12.085l2.319-5.616Z"/>
</svg>
